<?xml version="1.0"?>
<svg width="23.999999999999996" height="23.999999999999996" xmlns="http://www.w3.org/2000/svg" xmlns:svg="http://www.w3.org/2000/svg">
 <g class="layer">
  <title>Layer 1</title>
  <path d="m16.67,4l0.33,0c0.55,0 1,-0.45 1,-1c0,-0.55 -0.45,-1 -1,-1l-10,0c-0.55,0 -1,0.45 -1,1c0,0.55 0.45,1 1,1l0.33,0l0,16l-0.33,0c-0.55,0 -1,0.45 -1,1c0,0.55 0.45,1 1,1l10,0c0.55,0 1,-0.45 1,-1c0,-0.55 -0.45,-1 -1,-1l-0.33,0l0,-16zm-9.67,-0.67c-0.18,0 -0.33,-0.15 -0.33,-0.33c0,-0.18 0.15,-0.33 0.33,-0.33l10,0c0.18,0 0.33,0.15 0.33,0.33c0,0.18 -0.15,0.33 -0.33,0.33l-10,0zm1,0.67l8,0l0,1.33l-8,0l0,-1.33zm0,2l8,0l0,1.33l-8,0l0,-1.33zm0,2l8,0l0,8.67l-8,0l0,-8.67zm0,9.33l8,0l0,0.67l-8,0l0,-0.67zm9,3.34c0.18,0 0.33,0.15 0.33,0.33c0,0.18 -0.15,0.33 -0.33,0.33l-10,0c-0.18,0 -0.33,-0.15 -0.33,-0.33c0,-0.18 0.15,-0.33 0.33,-0.33l10,0zm-1,-0.67l-8,0l0,-1.33l8,0l0,1.33z" fill="#ff0000" id="svg_1"/>
  <path d="m15,10.92l-1.86,0l1.76,-1.76c0.1,-0.1 0.13,-0.24 0.07,-0.37c-0.05,-0.12 -0.17,-0.2 -0.3,-0.2l-3.34,0c-0.11,0 -0.22,0.05 -0.28,0.15l-2.33,3.67c-0.07,0.1 -0.07,0.23 -0.01,0.34c0.06,0.1 0.17,0.17 0.29,0.17l2.25,0l-0.58,2.59c-0.03,0.15 0.04,0.3 0.18,0.37c0.13,0.07 0.29,0.04 0.4,-0.07l4,-4.33c0.09,-0.1 0.11,-0.24 0.06,-0.36c-0.06,-0.12 -0.18,-0.2 -0.31,-0.2l0,0zm-3.41,3.53l0.4,-1.79c0.03,-0.1 0,-0.2 -0.06,-0.28c-0.07,-0.08 -0.16,-0.13 -0.26,-0.13l-2.06,0l1.91,-3l2.34,0l-1.76,1.77c-0.1,0.09 -0.13,0.24 -0.07,0.36c0.05,0.13 0.17,0.21 0.3,0.21l1.91,0l-2.65,2.86z" fill="#ff0000" id="svg_2" transform="matrix(1 0 0 1 0 0)"/>
 </g>
</svg>