<?xml version="1.0"?>
<svg width="24" height="24" xmlns="http://www.w3.org/2000/svg" xmlns:svg="http://www.w3.org/2000/svg">
 <g class="layer">
  <title>Layer 1</title>
  <path d="m21.76,12.18l-1.43,-0.43l0,-3.25c0,-0.18 -0.15,-0.33 -0.33,-0.33l-2,0c-0.18,0 -0.33,0.15 -0.33,0.33l0,2.44l-3.34,-1.02l0,-1.08l2.67,0c0.15,0 0.28,-0.1 0.32,-0.25c0.04,-0.14 -0.02,-0.3 -0.15,-0.37l-7.33,-4.34l0,0c0,0 -0.07,-0.03 -0.09,-0.03c-0.02,-0.01 -0.05,-0.01 -0.08,-0.01c-0.03,0 -0.06,0 -0.09,0.01c-0.01,0 -0.08,0.03 -0.08,0.03l0,0l-7.33,4.33c-0.13,0.08 -0.2,0.23 -0.16,0.38c0.04,0.15 0.18,0.25 0.33,0.25l2.66,0l0,11.33l16,0l0,-7.33l0.67,0c0.16,0 0.3,-0.13 0.33,-0.29c0.02,-0.16 -0.08,-0.32 -0.24,-0.37l0,0zm-3.43,-3.34l1.34,0l0,2.7l-1.34,-0.4l0,-2.3zm1.1,3.33l-5.1,0l0,-1.55l5.1,1.55zm-5.34,-4l-4.09,-2.2l0,-1.22l5.78,3.42l-1.69,0zm-4.75,-3.42l0,1.22l-4.09,2.2l-1.69,0l5.78,-3.42zm4.33,14.75l-8,0l0,-10.8l4,-2.15l4,2.15l0,10.8zm6.66,0l-6,0l0,-6.66l6,0l0,6.66z" fill="#7f003f" id="svg_1"/>
  <path d="m6.67,16.47c0.06,0 0.12,-0.02 0.17,-0.05c0.43,-0.27 0.84,-0.56 1.22,-0.88c0.3,0.12 0.61,0.18 0.93,0.17c0.06,0 0.12,0 0.18,0c0.99,-0.04 1.91,-0.48 2.58,-1.2c1.39,-1.71 1.18,-4.05 1.17,-4.14l-0.03,-0.32l-0.31,0.01c-0.1,0.01 -2.4,0.1 -3.81,1.51c-1.05,1.05 -1.75,2.67 -1.23,3.53c-0.33,0.27 -0.68,0.52 -1.04,0.75c-0.13,0.08 -0.19,0.24 -0.15,0.38c0.04,0.14 0.17,0.24 0.32,0.24l0,0zm2.57,-4.43c0.93,-0.93 2.38,-1.2 3.03,-1.28c0,0.66 -0.11,2.18 -1.04,3.33c-0.54,0.58 -1.3,0.92 -2.1,0.95c-0.16,0.01 -0.31,0 -0.47,-0.02c0.46,-0.41 0.88,-0.86 1.27,-1.34c0.11,-0.14 0.09,-0.35 -0.06,-0.47c-0.14,-0.11 -0.35,-0.09 -0.47,0.05c-0.4,0.51 -0.85,0.97 -1.34,1.4c-0.16,-0.53 0.3,-1.74 1.18,-2.62l0,0z" fill="#7f003f" id="svg_2" transform="matrix(1 0 0 1 0 0)"/>
  <path d="m12.67,18.17l-6,0c-0.18,0 -0.33,0.15 -0.33,0.33c0,0.18 0.15,0.33 0.33,0.33l6,0c0.18,0 0.33,-0.15 0.33,-0.33c0,-0.18 -0.15,-0.33 -0.33,-0.33z" fill="#7f003f" id="svg_3" transform="matrix(1 0 0 1 0 0)"/>
  <path d="m15.33,18.83l2.67,0c0.18,0 0.33,-0.15 0.33,-0.33c0,-0.18 -0.15,-0.33 -0.33,-0.33l-2.67,0c-0.18,0 -0.33,0.15 -0.33,0.33c0,0.18 0.15,0.33 0.33,0.33z" fill="#7f003f" id="svg_4" transform="matrix(1 0 0 1 0 0)"/>
  <path d="m19.1,18.74c0.03,0.03 0.07,0.05 0.11,0.07c0.08,0.03 0.17,0.03 0.25,0c0.08,-0.03 0.15,-0.1 0.18,-0.18c0.02,-0.04 0.03,-0.09 0.03,-0.13c0,-0.02 -0.01,-0.04 -0.01,-0.06c0,-0.02 -0.01,-0.05 -0.02,-0.07c-0.01,-0.02 -0.02,-0.04 -0.03,-0.06l-0.04,-0.05c-0.08,-0.07 -0.19,-0.11 -0.3,-0.09c-0.02,0.01 -0.04,0.01 -0.06,0.02c-0.02,0.01 -0.04,0.02 -0.06,0.03c-0.02,0.02 -0.04,0.03 -0.05,0.04l-0.04,0.05c-0.02,0.02 -0.03,0.04 -0.03,0.06c-0.01,0.02 -0.02,0.05 -0.02,0.07c-0.01,0.02 -0.01,0.04 -0.01,0.06c0,0.04 0.01,0.09 0.03,0.13c0.01,0.04 0.04,0.07 0.07,0.11z" fill="#7f003f" id="svg_5"/>
 </g>
</svg>