<?xml version="1.0"?>
<svg width="24" height="24" xmlns="http://www.w3.org/2000/svg" xmlns:svg="http://www.w3.org/2000/svg">
 <g class="layer">
  <title>Layer 1</title>
  <path d="m5.83,10.33c0.02,2.01 0.9,3.9 2.42,5.21l1.08,3.51l0,1.28c0,0.92 0.75,1.67 1.67,1.67l2,0c0.92,0 1.67,-0.75 1.67,-1.67l0,-1.28l1.08,-3.51c1.52,-1.31 2.4,-3.2 2.42,-5.21c0,-3.28 -2.6,-5.66 -6.17,-5.66c-3.57,0 -6.17,2.38 -6.17,5.66l0,0zm8.17,9.67l-4,0l0,-0.67l4,0l0,0.67zm-1,1.33l-2,0c-0.42,0 -0.8,-0.26 -0.94,-0.66l3.88,0c-0.14,0.4 -0.52,0.66 -0.94,0.66zm1.09,-2.66l-4.18,0l-0.76,-2.48c1.75,1.08 3.95,1.08 5.7,0l-0.76,2.48zm-2.78,-6.43l0.49,0.35c0.12,0.08 0.28,0.08 0.39,0l0.5,-0.36c-0.02,0.04 -0.02,0.07 -0.02,0.1l0,3.95c-0.44,0.07 -0.9,0.07 -1.34,0l0,-3.95c0,-0.03 0,-0.06 -0.02,-0.09zm0.69,-6.91c3.19,0 5.5,2.11 5.5,5c0,2.7 -1.83,5.11 -4.17,5.8l0,-3.72l0.25,0.18c0.12,0.08 0.27,0.08 0.39,0l0.89,-0.64c0.1,-0.07 0.16,-0.18 0.14,-0.3c-0.01,-0.13 -0.08,-0.23 -0.19,-0.28c-0.11,-0.05 -0.24,-0.03 -0.34,0.04l-0.69,0.5l-0.7,-0.5c-0.12,-0.08 -0.27,-0.08 -0.39,0l-0.69,0.5l-0.7,-0.5c-0.11,-0.08 -0.27,-0.08 -0.39,0l-0.69,0.5l-0.69,-0.5c-0.15,-0.11 -0.36,-0.07 -0.47,0.08c-0.1,0.14 -0.07,0.35 0.08,0.46l0.89,0.64c0.11,0.08 0.27,0.08 0.39,0l0.25,-0.18l0,3.72c-2.34,-0.69 -4.17,-3.1 -4.17,-5.8c0,-2.89 2.31,-5 5.5,-5l0,0z" fill="#ff0000" id="svg_1" transform="matrix(1 0 0 1 0 0)"/>
  <path d="m7.34,11.74c0.04,0.15 0.17,0.26 0.33,0.26c0.02,0 0.05,0 0.07,-0.01c0.09,-0.02 0.16,-0.07 0.21,-0.14c0.05,-0.08 0.06,-0.17 0.04,-0.26c-0.32,-1.23 -0.06,-2.53 0.72,-3.54c0.72,-0.89 1.81,-1.4 2.96,-1.38c0.18,0 0.33,-0.15 0.33,-0.34c0,-0.18 -0.15,-0.33 -0.33,-0.33c-1.35,-0.02 -2.63,0.58 -3.48,1.63c-0.9,1.17 -1.22,2.68 -0.85,4.11z" fill="#ff0000" id="svg_2" transform="matrix(1 0 0 1 0 0)"/>
  <path d="m12.67,6.67l0.33,0c0.18,0 0.33,-0.15 0.33,-0.34c0,-0.18 -0.15,-0.33 -0.33,-0.33l-0.33,0c-0.19,0 -0.34,0.15 -0.34,0.33c0,0.19 0.15,0.34 0.34,0.34z" fill="#ff0000" id="svg_3"/>
  <path d="m12.33,3.67l0,-1.34c0,-0.18 -0.15,-0.33 -0.33,-0.33c-0.18,0 -0.33,0.15 -0.33,0.33l0,1.34c0,0.18 0.15,0.33 0.33,0.33c0.18,0 0.33,-0.15 0.33,-0.33z" fill="#ff0000" id="svg_4" transform="matrix(1 0 0 1 0 0)"/>
  <path d="m17.1,17.1c-0.13,0.13 -0.13,0.34 0,0.47l1,1c0.13,0.13 0.34,0.12 0.46,-0.01c0.13,-0.12 0.14,-0.33 0.01,-0.46l-1,-1c-0.13,-0.13 -0.34,-0.13 -0.47,0l0,0z" fill="#ff0000" id="svg_5" transform="matrix(1 0 0 1 0 0)"/>
  <path d="m4.57,4.1c-0.13,-0.13 -0.34,-0.13 -0.47,0c-0.13,0.13 -0.13,0.34 0,0.47l1,1c0.13,0.13 0.34,0.12 0.46,-0.01c0.13,-0.12 0.14,-0.33 0.01,-0.46l-1,-1z" fill="#ff0000" id="svg_6" transform="matrix(1 0 0 1 0 0)"/>
  <path d="m5.43,18.57c0.13,0.13 0.34,0.13 0.47,0l1,-1c0.13,-0.13 0.13,-0.34 0,-0.47c-0.13,-0.13 -0.34,-0.13 -0.47,0l-1,1c-0.13,0.13 -0.13,0.34 0,0.47l0,0z" fill="#ff0000" id="svg_7" transform="matrix(1 0 0 1 0 0)"/>
  <path d="m5,11.67l-1.67,0c-0.18,0 -0.33,0.15 -0.33,0.33c0,0.18 0.15,0.33 0.33,0.33l1.67,0c0.18,0 0.33,-0.15 0.33,-0.33c0,-0.18 -0.15,-0.33 -0.33,-0.33z" fill="#ff0000" id="svg_8" transform="matrix(1 0 0 1 0 0)"/>
  <path d="m19.43,4.1l-1,1c-0.09,0.08 -0.12,0.21 -0.09,0.32c0.03,0.12 0.12,0.21 0.24,0.24c0.11,0.03 0.24,0 0.32,-0.09l1,-1c0.13,-0.13 0.13,-0.34 0,-0.47c-0.13,-0.13 -0.34,-0.13 -0.47,0z" fill="#ff0000" id="svg_9" transform="matrix(1 0 0 1 0 0)"/>
  <path d="m18.67,12c0,0.18 0.15,0.33 0.33,0.33l1.67,0c0.18,0 0.33,-0.15 0.33,-0.33c0,-0.18 -0.15,-0.33 -0.33,-0.33l-1.67,0c-0.18,0 -0.33,0.15 -0.33,0.33z" fill="#ff0000" id="svg_10" transform="matrix(1 0 0 1 0 0)"/>
 </g>
</svg>