<?xml version="1.0"?>
<svg width="24" height="25" xmlns="http://www.w3.org/2000/svg" xmlns:svg="http://www.w3.org/2000/svg">
 <g class="layer">
  <title>Layer 1</title>
  <path d="m12.12,2.99l-0.24,0c-2.64,0.03 -5.16,1.11 -7.01,2.99c-1.85,1.89 -2.89,4.43 -2.87,7.07c0.02,2.64 1.08,5.17 2.95,7.04c1.87,1.86 4.41,2.9 7.05,2.9c2.64,0 5.18,-1.04 7.05,-2.9c1.87,-1.87 2.93,-4.4 2.95,-7.04c0.02,-2.64 -1.02,-5.18 -2.87,-7.07c-1.85,-1.88 -4.37,-2.96 -7.01,-2.99zm-9.34,10.43l3.07,0c0.03,1.27 0.21,2.53 0.55,3.75l-2.65,0c-0.59,-1.17 -0.92,-2.45 -0.97,-3.75zm9.6,-5.29l0,-4.31c1.76,0.21 3.29,1.88 4.17,4.31l-4.17,0zm4.43,0.77c0.35,1.23 0.53,2.49 0.56,3.76l-4.99,0l0,-3.76l4.43,0zm-5.19,-5.07l0,4.31l-4.18,0c0.93,-2.48 2.42,-4.15 4.18,-4.36l0,0.05zm0,5.07l0,3.75l-4.99,0c0.03,-1.27 0.21,-2.54 0.56,-3.76l4.43,0.01zm-5.75,3.76l-3.08,0c0.05,-1.31 0.38,-2.59 0.97,-3.76l2.67,0c-0.34,1.22 -0.53,2.48 -0.56,3.75l0,0.01zm0.77,0.77l4.99,0l0,3.76l-4.43,0c-0.35,-1.23 -0.54,-2.5 -0.57,-3.77l0.01,0.01zm4.99,4.52l0,4.31c-1.76,-0.21 -3.29,-1.88 -4.18,-4.31l4.18,0zm0.77,4.31l0,-4.31l4.18,0c-0.92,2.39 -2.44,4.04 -4.2,4.25l0.02,0.06zm0,-5.07l0,-3.77l4.99,0c-0.02,1.27 -0.21,2.53 -0.56,3.75l-4.43,0.02zm5.75,-3.76l3.08,0c-0.05,1.31 -0.38,2.59 -0.97,3.76l-2.66,0c0.33,-1.23 0.51,-2.5 0.53,-3.77l0.02,0.01zm0,-0.77c-0.02,-1.27 -0.2,-2.53 -0.54,-3.76l2.67,0c0.59,1.17 0.92,2.45 0.97,3.76l-3.1,0zm1.7,-4.52l-2.47,0c-0.46,-1.46 -1.28,-2.78 -2.37,-3.85c1.99,0.69 3.68,2.03 4.81,3.8l0.03,0.05zm-10.77,-3.85c-1.1,1.07 -1.91,2.39 -2.37,3.85l-2.47,0c1.1,-1.8 2.79,-3.17 4.78,-3.88l0.06,0.03zm-4.84,13.64l2.48,0c0.45,1.46 1.27,2.79 2.37,3.85c-2.04,-0.68 -3.78,-2.06 -4.91,-3.89l0.06,0.04zm10.77,3.85c1.1,-1.07 1.91,-2.39 2.37,-3.85l2.48,0c-1.14,1.8 -2.87,3.14 -4.89,3.81l0.04,0.04z" fill="#000000" id="svg_1"/>
 </g>
</svg>